# xmcd
# 
# Track frame offsets:
#     150
#     25570
#     46697
# 
# Disc length: 961
# 
# Revision: 1
# Processed by: cddbd v1.5.2PL0 Copyright (c) Steve Scherf et al.
# Submitted via: BonkEnc v1.0.6
# 
DISCID=1303bf03
DTITLE=岡本 真夜 - Everlasting
DYEAR=2000
DGENRE=J-POP
TTITLE0=Everlasting
TTITLE1=銀色の週末〜Ambient Version〜
TTITLE2=Everlasting(Instrumental)
EXTD=
EXTT0=
EXTT1=
EXTT2=
PLAYORDER=
